<svg width="130" height="30" viewBox="0 0 130 30" fill="none" xmlns="http://www.w3.org/2000/svg">
<g filter="url(#filter0_d_62001_4705)">
<path d="M11.9395 7.82617L14.6143 1.35938H18.9541L13.9912 11.4355V17H9.89844V11.4355L4.9248 1.35938H9.26465L11.9395 7.82617Z" fill="#EE2B69"/>
<path d="M32.8115 11.6182C32.7686 12.721 32.4749 13.695 31.9307 14.54C31.3864 15.3779 30.6309 16.0332 29.6641 16.5059C28.7044 16.9785 27.5729 17.2148 26.2695 17.2148C24.8587 17.2148 23.652 16.9069 22.6494 16.291C21.6468 15.668 20.8805 14.7799 20.3506 13.627C19.8278 12.474 19.5664 11.099 19.5664 9.50195V8.86816C19.5664 7.264 19.8421 5.88542 20.3936 4.73242C20.945 3.57943 21.7148 2.69141 22.7031 2.06836C23.6986 1.44531 24.8659 1.13379 26.2051 1.13379C27.5944 1.13379 28.7617 1.38444 29.707 1.88574C30.6595 2.38704 31.3936 3.07096 31.9092 3.9375C32.432 4.80404 32.7399 5.78158 32.833 6.87012H28.8154C28.8011 6.05371 28.6042 5.44499 28.2246 5.04395C27.8451 4.6429 27.1719 4.44238 26.2051 4.44238C25.625 4.44238 25.1452 4.58203 24.7656 4.86133C24.3932 5.13346 24.1139 5.5918 23.9277 6.23633C23.7487 6.8737 23.6592 7.74381 23.6592 8.84668V9.50195C23.6592 10.612 23.738 11.4893 23.8955 12.1338C24.0602 12.7712 24.3324 13.2259 24.7119 13.498C25.0986 13.7702 25.6178 13.9062 26.2695 13.9062C26.8066 13.9062 27.2614 13.8275 27.6338 13.6699C28.0062 13.5124 28.2891 13.2653 28.4824 12.9287C28.6829 12.5921 28.7868 12.1553 28.7939 11.6182H32.8115Z" fill="#EE2B69"/>
<path d="M36.1523 17V13.7559H39.6006C40.2809 13.7559 40.8538 13.5983 41.3193 13.2832C41.7848 12.9681 42.1393 12.4919 42.3828 11.8545C42.6263 11.2171 42.748 10.415 42.748 9.44824V8.90039C42.748 7.94076 42.6263 7.14583 42.3828 6.51562C42.1465 5.87826 41.7884 5.40202 41.3086 5.08691C40.8359 4.77181 40.2451 4.61426 39.5361 4.61426H36.0879V1.35938H39.5361C40.9684 1.35938 42.2324 1.68164 43.3281 2.32617C44.431 2.9707 45.2939 3.8623 45.917 5.00098C46.54 6.13249 46.8516 7.43945 46.8516 8.92188V9.44824C46.8516 10.9235 46.54 12.2305 45.917 13.3691C45.2939 14.5078 44.4382 15.3994 43.3496 16.0439C42.2611 16.6813 41.0114 17 39.6006 17H36.1523ZM38.4834 17H34.4443V1.35938H38.4834V17Z" fill="black"/>
<path d="M50.6221 0.5C51.2594 0.5 51.7715 0.679036 52.1582 1.03711C52.5521 1.39518 52.749 1.86068 52.749 2.43359C52.749 2.99935 52.5521 3.46484 52.1582 3.83008C51.7715 4.18815 51.2594 4.36719 50.6221 4.36719C49.9919 4.36719 49.4798 4.18815 49.0859 3.83008C48.6921 3.46484 48.4951 2.99935 48.4951 2.43359C48.4951 1.86068 48.6921 1.39518 49.0859 1.03711C49.4798 0.679036 49.9919 0.5 50.6221 0.5ZM52.5664 17H48.6777V5.37695H52.5664V17Z" fill="black"/>
<path d="M58.5391 17H54.6719V5.37695H58.2812L58.5391 8.48145V17ZM61.8262 9.07227C61.6758 9.05794 61.4717 9.04004 61.2139 9.01855C60.9632 8.99707 60.7591 8.98633 60.6016 8.98633C60.0573 8.98633 59.6133 9.05794 59.2695 9.20117C58.9329 9.33724 58.6895 9.55208 58.5391 9.8457C58.3887 10.1393 58.3171 10.526 58.3242 11.0059L57.6475 10.4258C57.6475 9.37305 57.7799 8.4528 58.0449 7.66504C58.3099 6.87012 58.6823 6.25423 59.1621 5.81738C59.6491 5.38053 60.2184 5.16211 60.8701 5.16211C61.0492 5.16211 61.2282 5.17285 61.4072 5.19434C61.5934 5.20866 61.7546 5.24089 61.8906 5.29102L61.8262 9.07227Z" fill="black"/>
<path d="M68.8086 17.2148C67.5195 17.2148 66.4202 16.9535 65.5107 16.4307C64.6084 15.9079 63.9209 15.2204 63.4482 14.3682C62.9756 13.5088 62.7393 12.5814 62.7393 11.5859V11.1885C62.7393 10.0785 62.9469 9.06868 63.3623 8.15918C63.7777 7.24251 64.4043 6.51562 65.2422 5.97852C66.0801 5.43424 67.1328 5.16211 68.4004 5.16211C69.5247 5.16211 70.4844 5.39486 71.2793 5.86035C72.0742 6.31869 72.6829 6.97754 73.1055 7.83691C73.5352 8.68913 73.75 9.70964 73.75 10.8984V12.5205H64.1895V10.0391H69.9688V9.72754C69.9759 9.39095 69.9186 9.11523 69.7969 8.90039C69.6751 8.68555 69.4925 8.528 69.249 8.42773C69.0127 8.32747 68.7191 8.27734 68.3682 8.27734C67.8669 8.27734 67.4909 8.41699 67.2402 8.69629C66.9896 8.97559 66.8213 9.33724 66.7354 9.78125C66.6494 10.2181 66.6064 10.6872 66.6064 11.1885V11.5859C66.6064 12.1016 66.7031 12.5492 66.8965 12.9287C67.0898 13.3011 67.3691 13.5876 67.7344 13.7881C68.1068 13.9886 68.5508 14.0889 69.0664 14.0889C69.5391 14.0889 70.0117 14.0065 70.4844 13.8418C70.9642 13.6771 71.3688 13.387 71.6982 12.9717L73.4385 15.1953C73.0804 15.6966 72.5003 16.1585 71.6982 16.5811C70.9033 17.0036 69.9401 17.2148 68.8086 17.2148Z" fill="black"/>
<path d="M80.1846 17.2148C78.96 17.2148 77.9395 16.957 77.123 16.4414C76.3138 15.9258 75.7051 15.224 75.2969 14.3359C74.8887 13.4408 74.6846 12.4274 74.6846 11.2959V11.0918C74.6846 9.96029 74.8851 8.94694 75.2861 8.05176C75.6943 7.15658 76.3031 6.45117 77.1123 5.93555C77.9287 5.41992 78.9456 5.16211 80.1631 5.16211C81.1514 5.16211 82.0179 5.34831 82.7627 5.7207C83.5146 6.08594 84.1019 6.62305 84.5244 7.33203C84.9469 8.04102 85.151 8.90755 85.1367 9.93164H81.5166C81.5238 9.63086 81.4772 9.35514 81.377 9.10449C81.2839 8.85384 81.1299 8.65332 80.915 8.50293C80.7002 8.35254 80.4173 8.27734 80.0664 8.27734C79.6152 8.27734 79.2822 8.40625 79.0674 8.66406C78.8525 8.91471 78.7129 9.25488 78.6484 9.68457C78.584 10.1071 78.5518 10.5762 78.5518 11.0918V11.2959C78.5518 11.8258 78.5804 12.3021 78.6377 12.7246C78.7021 13.1471 78.8454 13.4837 79.0674 13.7344C79.2894 13.9779 79.6331 14.0996 80.0986 14.0996C80.4137 14.0996 80.6787 14.0459 80.8936 13.9385C81.1084 13.8311 81.266 13.6771 81.3662 13.4766C81.4736 13.2689 81.5238 13.0218 81.5166 12.7354H85.1367C85.151 13.6449 84.9398 14.4362 84.5029 15.1094C84.0732 15.7754 83.4824 16.2946 82.7305 16.667C81.9857 17.0322 81.137 17.2148 80.1846 17.2148Z" fill="black"/>
<path d="M92.8926 8.16992H85.749V5.37695H92.8926V8.16992ZM91.0342 2.4873V12.9932C91.0342 13.2653 91.0664 13.4801 91.1309 13.6377C91.1953 13.7881 91.3099 13.8955 91.4746 13.96C91.6465 14.0244 91.8792 14.0566 92.1729 14.0566C92.3734 14.0566 92.5417 14.0531 92.6777 14.0459C92.8138 14.0387 92.9391 14.0244 93.0537 14.0029V16.8818C92.7243 16.9964 92.3877 17.0788 92.0439 17.1289C91.7074 17.1862 91.3385 17.2148 90.9375 17.2148C90.1354 17.2148 89.4515 17.0895 88.8857 16.8389C88.3271 16.5811 87.901 16.1836 87.6074 15.6465C87.3138 15.1022 87.167 14.404 87.167 13.5518V2.4873H91.0342Z" fill="black"/>
<path d="M93.5479 11.0918C93.5479 9.95312 93.7627 8.93978 94.1924 8.05176C94.6221 7.15658 95.2559 6.45117 96.0938 5.93555C96.9316 5.41992 97.9629 5.16211 99.1875 5.16211C100.426 5.16211 101.465 5.41992 102.303 5.93555C103.148 6.45117 103.782 7.15658 104.204 8.05176C104.634 8.93978 104.849 9.95312 104.849 11.0918V11.2959C104.849 12.4274 104.634 13.4408 104.204 14.3359C103.782 15.2311 103.151 15.9365 102.313 16.4521C101.476 16.9606 100.441 17.2148 99.209 17.2148C97.9772 17.2148 96.9388 16.9606 96.0938 16.4521C95.2559 15.9365 94.6221 15.2311 94.1924 14.3359C93.7627 13.4408 93.5479 12.4274 93.5479 11.2959V11.0918ZM97.4258 11.2959C97.4258 11.8258 97.4723 12.3057 97.5654 12.7354C97.6657 13.1579 97.8447 13.4909 98.1025 13.7344C98.3604 13.9779 98.7292 14.0996 99.209 14.0996C99.6816 14.0996 100.047 13.9779 100.305 13.7344C100.562 13.4909 100.738 13.1579 100.831 12.7354C100.931 12.3057 100.981 11.8258 100.981 11.2959V11.0918C100.981 10.5762 100.931 10.1071 100.831 9.68457C100.738 9.25488 100.562 8.91471 100.305 8.66406C100.047 8.40625 99.6745 8.27734 99.1875 8.27734C98.7148 8.27734 98.3496 8.40625 98.0918 8.66406C97.8411 8.91471 97.6657 9.25488 97.5654 9.68457C97.4723 10.1071 97.4258 10.5762 97.4258 11.0918V11.2959Z" fill="black"/>
<path d="M110.252 17H106.385V5.37695H109.994L110.252 8.48145V17ZM113.539 9.07227C113.389 9.05794 113.185 9.04004 112.927 9.01855C112.676 8.99707 112.472 8.98633 112.314 8.98633C111.77 8.98633 111.326 9.05794 110.982 9.20117C110.646 9.33724 110.402 9.55208 110.252 9.8457C110.102 10.1393 110.03 10.526 110.037 11.0059L109.36 10.4258C109.36 9.37305 109.493 8.4528 109.758 7.66504C110.023 6.87012 110.395 6.25423 110.875 5.81738C111.362 5.38053 111.931 5.16211 112.583 5.16211C112.762 5.16211 112.941 5.17285 113.12 5.19434C113.306 5.20866 113.467 5.24089 113.604 5.29102L113.539 9.07227Z" fill="black"/>
<path d="M121.273 5.37695H125.42L120.79 18.708C120.69 19.0016 120.554 19.3203 120.382 19.6641C120.21 20.0078 119.977 20.3337 119.684 20.6416C119.397 20.9495 119.025 21.2002 118.566 21.3936C118.115 21.5941 117.553 21.6943 116.88 21.6943C116.636 21.6943 116.443 21.6872 116.3 21.6729C116.157 21.6657 116.017 21.6442 115.881 21.6084C115.745 21.5726 115.562 21.526 115.333 21.4688V18.5898C115.419 18.5898 115.491 18.5863 115.548 18.5791C115.612 18.5791 115.688 18.5791 115.773 18.5791C116.346 18.5791 116.747 18.5075 116.977 18.3643C117.213 18.2282 117.378 18.0384 117.471 17.7949L118.33 15.5928L121.273 5.37695ZM119.995 13.1865L120.393 17.5049L117.814 17.3652L113.722 5.37695H117.868L119.995 13.1865Z" fill="black"/>
</g>
<defs>
<filter id="filter0_d_62001_4705" x="0.924805" y="0.5" width="128.495" height="29.1943" filterUnits="userSpaceOnUse" color-interpolation-filters="sRGB">
<feFlood flood-opacity="0" result="BackgroundImageFix"/>
<feColorMatrix in="SourceAlpha" type="matrix" values="0 0 0 0 0 0 0 0 0 0 0 0 0 0 0 0 0 0 127 0" result="hardAlpha"/>
<feOffset dy="4"/>
<feGaussianBlur stdDeviation="2"/>
<feComposite in2="hardAlpha" operator="out"/>
<feColorMatrix type="matrix" values="0 0 0 0 0 0 0 0 0 0 0 0 0 0 0 0 0 0 0.25 0"/>
<feBlend mode="normal" in2="BackgroundImageFix" result="effect1_dropShadow_62001_4705"/>
<feBlend mode="normal" in="SourceGraphic" in2="effect1_dropShadow_62001_4705" result="shape"/>
</filter>
</defs>
</svg>
